# xmcd
#
# Track frame offsets:
#	150
#	21019
#	40321
#	61110
#	83902
#	100668
#	118720
#	135354
#	156467
#	172237
#	195893
#	213683
#
# Disc length: 3167 seconds
#
# Revision: 1
# Processed by: cddbd v1.5.2PL0 Copyright (c) Steve Scherf et al.
# Submitted via: CDmax 2.0
#
DISCID=9e0c5d0c
DTITLE=Claudia Koreck - Barfuaﬂ um die Welt
DYEAR=2009
DGENRE=Country
TTITLE0=Strandliad
TTITLE1=I wui dass du woasst
TTITLE2=Nur wegen Dir
TTITLE3=Hear nu ned auf
TTITLE4=Lisa
TTITLE5=Barfuaﬂ um die Welt
TTITLE6=Jaga
TTITLE7=Dahoam
TTITLE8=Scheene Aung
TTITLE9=Melodie in meim Kopf
TTITLE10='s ewige Lem
TTITLE11=Verloren
EXTD=
EXTT0=
EXTT1=
EXTT2=
EXTT3=
EXTT4=
EXTT5=
EXTT6=
EXTT7=
EXTT8=
EXTT9=
EXTT10=
EXTT11=
PLAYORDER=
